<svg width="20" height="20" viewBox="0 0 20 20" fill="none" xmlns="http://www.w3.org/2000/svg">
<path d="M15.2458 5.92925C15.5703 5.60478 15.5703 5.07872 15.2458 4.75425V4.75425C14.9214 4.42978 14.3953 4.42978 14.0708 4.75425L9.99999 8.82508L5.92916 4.75425C5.60469 4.42978 5.07862 4.42978 4.75416 4.75425V4.75425C4.42969 5.07872 4.42969 5.60478 4.75416 5.92925L8.82499 10.0001L4.75416 14.0709C4.42969 14.3954 4.42969 14.9215 4.75416 15.2459V15.2459C5.07862 15.5704 5.60469 15.5704 5.92916 15.2459L9.99999 11.1751L14.0708 15.2459C14.3953 15.5704 14.9214 15.5704 15.2458 15.2459V15.2459C15.5703 14.9215 15.5703 14.3954 15.2458 14.0709L11.175 10.0001L15.2458 5.92925Z" fill="#999999"/>
</svg>
